<mxfile host="app.diagrams.net" agent="Mozilla/5.0 (Windows NT 10.0; Win64; x64) AppleWebKit/537.36 (KHTML, like Gecko) Chrome/135.0.0.0 Safari/537.36" version="26.2.13">
  <diagram name="Page-1" id="lkTz19T5vx9C44CANUXN">
    <mxGraphModel dx="1283" dy="527" grid="1" gridSize="10" guides="1" tooltips="1" connect="1" arrows="1" fold="1" page="1" pageScale="1" pageWidth="827" pageHeight="1169" math="0" shadow="0">
      <root>
        <mxCell id="0" />
        <mxCell id="1" parent="0" />
        <mxCell id="Ww8ThTS0QMEeH2czjHqM-1" value="Resource" style="html=1;outlineConnect=0;whiteSpace=wrap;fillColor=#F5DEAA;shape=mxgraph.archimate3.application;appType=resource;archiType=square;" vertex="1" parent="1">
          <mxGeometry x="340" y="240" width="150" height="75" as="geometry" />
        </mxCell>
        <mxCell id="Ww8ThTS0QMEeH2czjHqM-2" value="Capability" style="html=1;outlineConnect=0;whiteSpace=wrap;fillColor=#F5DEAA;shape=mxgraph.archimate3.application;appType=capability;archiType=rounded;" vertex="1" parent="1">
          <mxGeometry x="130" y="240" width="150" height="75" as="geometry" />
        </mxCell>
        <mxCell id="Ww8ThTS0QMEeH2czjHqM-3" value="Course of Action" style="html=1;outlineConnect=0;whiteSpace=wrap;fillColor=#F5DEAA;shape=mxgraph.archimate3.application;appType=course;archiType=rounded;" vertex="1" parent="1">
          <mxGeometry x="560" y="240" width="150" height="75" as="geometry" />
        </mxCell>
      </root>
    </mxGraphModel>
  </diagram>
</mxfile>
